<svg width="1440" height="1024" viewBox="0 0 1440 1024" fill="none" xmlns="http://www.w3.org/2000/svg">
<g clip-path="url(#clip0_135_2)">
<rect width="1440" height="1024" fill="white"/>
<path d="M1443 781.676C1321.4 716.076 979 921.01 823 1031.68L1435 1025.68C1488.33 971.676 1564.6 847.276 1443 781.676Z" fill="#1EC171"/>
<path d="M1255 855C1256.49 853.648 1257.84 852.551 1259 851" stroke="#E8E8E8" stroke-width="3" stroke-linecap="round"/>
<path d="M1254 853C1256.45 848.637 1261.5 851.986 1263 846" stroke="#E8E8E8" stroke-width="3" stroke-linecap="round"/>
<path d="M1374 850C1375.23 853.27 1382.52 848.42 1383 846" stroke="#E8E8E8" stroke-width="3" stroke-linecap="round"/>
<path d="M1100.55 608.683C1103.71 608.515 1100.61 610.559 1098.66 611.603C1091.03 612.015 1074.55 612.779 1069.7 612.531C1063.64 612.22 1075.7 611.077 1073.43 608.375C1071.6 606.214 1076.67 608.804 1079.43 610.369C1079.32 610.036 1079.32 608.792 1080.25 606.475C1081.17 604.158 1083.56 607.994 1084.64 610.202C1084.62 609.474 1085.2 607.561 1087.73 605.731C1090.26 603.901 1090.13 607.84 1089.75 610.038C1089.94 609.416 1090.88 607.749 1093.17 606.061C1095.45 604.374 1095.87 607.88 1095.79 609.845C1096.06 609.528 1097.38 608.852 1100.55 608.683Z" fill="#11926C" fill-opacity="0.364706"/>
<path d="M803.826 762.956C808.95 762.815 803.826 766.889 800.624 768.943C788.263 769.296 761.587 769.789 753.766 768.943C743.99 767.887 763.542 766.302 760.003 760.491C757.171 755.842 765.228 761.606 769.61 765.069C769.442 764.365 769.509 761.759 771.127 756.969C772.745 752.18 776.408 760.374 778.038 765.069C778.038 763.543 779.083 759.575 783.263 755.913C787.443 752.25 787.027 760.491 786.297 765.069C786.634 763.778 788.252 760.35 792.028 756.969C795.803 753.588 796.298 760.961 796.073 765.069C796.522 764.424 798.702 763.097 803.826 762.956Z" fill="#11926C" fill-opacity="0.364706"/>
<path d="M1310.34 747.956C1314.25 747.815 1310.34 751.889 1307.89 753.943C1298.46 754.296 1278.08 754.789 1272.11 753.943C1264.65 752.887 1279.58 751.302 1276.87 745.491C1274.71 740.842 1280.86 746.606 1284.21 750.069C1284.08 749.365 1284.13 746.759 1285.37 741.969C1286.61 737.18 1289.4 745.374 1290.65 750.069C1290.65 748.543 1291.45 744.575 1294.64 740.913C1297.83 737.25 1297.51 745.491 1296.95 750.069C1297.21 748.778 1298.45 745.35 1301.33 741.969C1304.21 738.588 1304.59 745.961 1304.42 750.069C1304.76 749.424 1306.43 748.097 1310.34 747.956Z" fill="#11926C" fill-opacity="0.364706"/>
<rect x="56" y="841" width="7" height="30" fill="#E8E8E8"/>
<path d="M485.219 706.512C521.174 619.554 671.532 449.834 985.321 466.626C1377.56 487.616 1294.21 412.652 1269.69 349.682C1245.18 286.712 1058.87 37.8307 1367.75 -58.1236C1406.44 -70.141 1437.06 -79.8165 1460.91 -87.516V-97.1051C1521.56 -113.123 1589.42 -128.999 1460.91 -87.516V673.528L485.219 706.512Z" fill="#EEEEFF"/>
<path d="M291 735C333.613 642.154 511.815 460.943 883.714 478.872C1348.59 501.283 1249.8 421.243 1220.75 354.01C1191.69 286.776 970.878 21.0432 1336.97 -81.4081C1382.82 -94.2391 1419.1 -104.57 1447.37 -112.791V-123.029C1519.26 -140.131 1599.69 -157.082 1447.37 -112.791V699.782L291 735Z" fill="#F2F2F2" fill-opacity="0.7"/>
<path d="M779.127 -78.1075C744.213 -7.39954 599.012 130.212 297.518 114.993C-79.349 95.9687 0.44347 157.482 23.7425 208.931C47.0414 260.38 225.064 464.162 -72.1839 540.871C-109.411 550.478 -138.877 558.216 -161.832 564.375L-161.872 572.192C-220.227 584.953 -285.51 597.562 -161.832 564.375L-158.682 -55.9818L779.127 -78.1075Z" fill="#EEEEFF"/>
<path d="M965.896 -100.381C924.558 -24.9065 752.55 121.936 395.216 105.506C-51.451 84.9697 43.1542 150.696 70.7985 205.642C98.4427 260.589 309.554 478.276 -42.6938 560.001C-86.8094 570.237 -121.726 578.48 -148.929 585.044L-148.972 593.389C-218.126 606.979 -295.49 620.404 -148.929 585.044L-145.566 -77.3169L965.896 -100.381Z" fill="#F2F2F2" fill-opacity="0.7"/>
<path d="M697.366 639.789C465.452 629.334 135.824 692.934 0 726.041V1024H1453.52C1456.9 846.27 1461.63 491.855 1453.52 496.037C1443.39 501.264 987.26 652.858 697.366 639.789Z" fill="#829F42"/>
<path d="M92 1024L97.4545 964V1024L106.545 991.692V1024L122 964L116.545 1024H106.545H97.4545H92Z" fill="#506728"/>
<path d="M118 1024L126 981V1024L139.333 1000.85V1024L162 981L154 1024H139.333H126H118Z" fill="#506728"/>
<path d="M148 1024L156 981V1024L169.333 1000.85V1024L192 981L184 1024H169.333H156H148Z" fill="#506728"/>
<path d="M178 1024L186 981V1024L199.333 1000.85V1024L222 981L214 1024H199.333H186H178Z" fill="#506728"/>
<path d="M308 1024L316 996V1024L329.333 1008.92V1024L352 996L344 1024H329.333H316H308Z" fill="#506728"/>
<path d="M343 1024L351 996V1024L364.333 1008.92V1024L387 996L379 1024H364.333H351H343Z" fill="#435D29"/>
<path d="M373 1024L381 996V1024L394.333 1008.92V1024L417 996L409 1024H394.333H381H373Z" fill="#506728"/>
<path d="M1004.83 698.956C1009.95 698.815 1004.83 702.889 1001.62 704.943C989.263 705.296 962.587 705.789 954.766 704.943C944.99 703.887 964.542 702.302 961.003 696.491C958.171 691.842 966.228 697.606 970.61 701.069C970.442 700.365 970.509 697.759 972.127 692.969C973.745 688.18 977.408 696.374 979.038 701.069C979.038 699.543 980.083 695.575 984.263 691.913C988.443 688.25 988.027 696.491 987.297 701.069C987.634 699.778 989.252 696.35 993.028 692.969C996.803 689.588 997.298 696.961 997.073 701.069C997.522 700.424 999.702 699.097 1004.83 698.956Z" fill="#435D29"/>
<path d="M288.826 956.956C293.95 956.815 288.826 960.889 285.624 962.943C273.263 963.296 246.587 963.789 238.766 962.943C228.99 961.887 248.542 960.302 245.003 954.491C242.171 949.842 250.228 955.606 254.61 959.069C254.442 958.365 254.509 955.759 256.127 950.969C257.745 946.18 261.408 954.374 263.038 959.069C263.038 957.543 264.083 953.575 268.263 949.913C272.443 946.25 272.027 954.491 271.297 959.069C271.634 957.778 273.252 954.35 277.028 950.969C280.803 947.588 281.298 954.961 281.073 959.069C281.522 958.424 283.702 957.097 288.826 956.956Z" fill="#506728"/>
<path d="M511 1024L519 964V1024L532.333 991.692V1024L555 964L547 1024H532.333H519H511Z" fill="#506728"/>
<path d="M541 1024L549 981V1024L562.333 1000.85V1024L585 981L577 1024H562.333H549H541Z" fill="#506728"/>
<path d="M571 1024L579 996V1024L592.333 1008.92V1024L615 996L607 1024H592.333H579H571Z" fill="#506728"/>
<path d="M451 1024L459 996V1024L472.333 1008.92V1024L495 996L487 1024H472.333H459H451Z" fill="#506728"/>
<path d="M651 1024L659 996V1024L672.333 1008.92V1024L695 996L687 1024H672.333H659H651Z" fill="#506728"/>
<path d="M683 1024L691 920V1024L704.333 968V1024L727 920L719 1024H704.333H691H683Z" fill="#506728"/>
<path d="M758 1024C866.691 1002.51 1088.38 946.34 1105.59 893.543C1127.11 827.547 1181.73 740.064 1295.94 736.994C1399.98 734.198 1435.34 677.906 1439.56 655.143C1439.66 650.028 1439.78 647.943 1439.94 649.511C1440.09 651.014 1439.97 652.918 1439.56 655.143C1438.79 694.087 1439.45 908.688 1439.94 1024H758Z" fill="#87C1C1"/>
<ellipse cx="831.5" cy="581.5" rx="63.5" ry="60.5" fill="#FFE600"/>
<ellipse opacity="0.11" cx="840.5" cy="565.5" rx="129.5" ry="109.5" fill="#FFE600"/>
<path d="M429.849 456L-26 544.82V834L1270 559.279L1081.94 511.77L826.416 635.705L429.849 456Z" fill="#96AE62"/>
<path d="M992 542L982 561L1032 551.88L992 542Z" fill="#96AE62"/>
<path d="M1080 513L779 660L877 642L1080 513Z" fill="#CBDBA3"/>
<path d="M1379.11 483.761L1236 550.837L1265.86 561L1445 504.087V374L1379.11 483.761Z" fill="#CBDBA3"/>
<path d="M1395.34 490L1445 405V504L1333 538L1395.34 490Z" fill="#96AE62"/>
<path d="M426 459L2 539V767L426 459Z" fill="#E0E293"/>
<path d="M763.826 717.956C768.95 717.815 763.826 721.889 760.624 723.943C748.263 724.296 721.587 724.789 713.766 723.943C703.99 722.887 723.542 721.302 720.003 715.491C717.171 710.842 725.228 716.606 729.61 720.069C729.442 719.365 729.509 716.759 731.127 711.969C732.745 707.18 736.408 715.374 738.038 720.069C738.038 718.543 739.083 714.575 743.263 710.913C747.443 707.25 747.027 715.491 746.297 720.069C746.634 718.778 748.252 715.35 752.028 711.969C755.803 708.588 756.298 715.961 756.073 720.069C756.522 719.424 758.702 718.097 763.826 717.956Z" fill="#506728"/>
<path d="M1331.38 620.835C1335.2 620.731 1331.38 623.719 1328.99 625.225C1319.78 625.483 1299.89 625.845 1294.06 625.225C1286.77 624.45 1301.35 623.288 1298.71 619.027C1296.6 615.618 1302.61 619.845 1305.87 622.384C1305.75 621.868 1305.8 619.957 1307 616.444C1308.21 612.932 1310.94 618.941 1312.16 622.384C1312.16 621.265 1312.93 618.355 1316.05 615.669C1319.17 612.983 1318.86 619.027 1318.31 622.384C1318.56 621.437 1319.77 618.924 1322.58 616.444C1325.4 613.965 1325.77 619.371 1325.6 622.384C1325.93 621.911 1327.56 620.938 1331.38 620.835Z" fill="#506728"/>
<path d="M1355.95 605.634C1356.14 604.922 1355.72 604.213 1355.46 603.523C1355.06 602.432 1355.06 601.237 1355.07 600.073C1355.08 599.213 1355.09 598.352 1355.1 597.491C1355.11 596.098 1355.11 594.653 1354.54 593.383C1354.18 592.577 1353.52 591.856 1352.71 591.496C1352.37 591.346 1351.98 591.215 1351.61 591.308C1351.58 591.318 1351.52 591.337 1351.47 591.359C1350.85 591.039 1350.13 590.895 1349.43 590.879C1348.42 590.858 1347.42 591.065 1346.43 591.217C1343.8 591.616 1341.14 591.631 1338.49 591.644C1336.62 591.653 1334.75 591.663 1332.88 591.673C1331.89 591.677 1330.89 591.683 1329.9 591.604C1328.24 591.472 1326.62 591.104 1325.01 590.664C1324.25 590.455 1323.44 590.08 1322.66 589.968C1322.36 589.926 1322.06 589.991 1321.75 589.961C1321.45 589.931 1321.13 589.719 1320.85 589.71C1322.1 589.752 1323.34 589.081 1323.99 588.017C1323.39 587.694 1322.78 587.366 1322.1 587.27C1321.43 587.175 1320.67 587.358 1320.25 587.899C1320.23 587.138 1320.71 586.444 1320.77 585.685C1320.85 584.78 1320.32 583.918 1319.65 583.312C1318.76 582.518 1317.6 582.045 1316.41 582C1316.33 582.414 1316.77 582.717 1317.12 582.957C1317.7 583.358 1318.73 584.367 1318.71 585.155C1318.7 585.685 1318.13 585.631 1317.61 585.766C1317.04 585.912 1316.48 586.058 1315.91 586.204C1315.58 586.288 1315.25 586.377 1314.98 586.581C1314.91 586.632 1314.84 586.693 1314.76 586.702C1314.67 586.711 1314.58 586.659 1314.51 586.607C1313.91 586.187 1313.42 585.598 1313.05 584.977C1312.73 584.452 1312.49 583.861 1312.21 583.312C1311.89 583.727 1311.76 584.269 1311.78 584.794C1311.8 585.739 1312.41 586.513 1312.59 587.404C1312.6 587.473 1312.62 587.549 1312.68 587.591C1312.74 587.638 1312.83 587.626 1312.91 587.612C1313.37 587.524 1313.83 587.408 1314.29 587.262C1313.24 587.782 1312.09 588.448 1311.18 589.173C1310.59 589.643 1309.53 589.812 1309.14 590.495C1308.86 590.98 1309.03 591.621 1309.39 592.047C1309.75 592.473 1310.26 592.733 1310.76 592.981C1311 593.1 1311.25 593.221 1311.51 593.272C1311.89 593.345 1312.29 593.27 1312.66 593.364C1313.3 593.524 1313.72 594.124 1314.31 594.422C1314.78 594.662 1315.33 594.692 1315.83 594.88C1317.31 595.442 1318.09 597.172 1318.97 598.367C1319.5 599.076 1320.06 599.758 1320.6 600.461C1321.05 601.057 1321.9 601.912 1322.08 602.647C1322.37 603.765 1323.1 604.737 1323.86 605.575C1324.6 606.383 1325.74 607.003 1325.77 608.204C1325.82 611.084 1325.6 613.969 1325.09 616.805C1324.98 617.466 1324.83 618.151 1324.42 618.684C1324.01 619.222 1323.31 619.683 1323.39 620.356C1324.25 620.443 1325.13 620.381 1325.97 620.172C1326.17 620.124 1326.37 620.063 1326.51 619.919C1326.92 619.506 1326.56 618.767 1326.82 618.254C1326.95 618.007 1327.2 617.854 1327.44 617.705C1327.67 617.556 1327.92 617.378 1328 617.113C1328.11 616.791 1327.86 616.741 1327.78 616.522C1327.7 616.309 1327.63 616.13 1327.61 615.847C1327.56 615.189 1327.6 614.524 1327.67 613.869C1327.82 612.334 1328.51 610.832 1328.58 609.31C1329.4 609.355 1330.22 609.243 1331 608.983C1330.78 608.342 1330.56 607.705 1330.32 607.07C1331.82 609.251 1333.02 611.625 1333.91 614.115C1334.28 615.161 1334.6 616.304 1334.28 617.368C1333.9 618.626 1332.67 619.689 1332.91 620.981C1333.67 620.987 1334.44 620.994 1335.2 621C1335.32 621.001 1335.44 621 1335.54 620.94C1335.62 620.89 1335.67 620.805 1335.71 620.719C1336.08 619.964 1335.74 618.931 1336.31 618.318C1336.53 618.075 1336.89 617.918 1336.97 617.595C1337.12 616.998 1336.51 616.213 1336.46 615.588C1336.4 614.919 1336.32 614.351 1336.12 613.696H1336.15C1335.74 612.48 1335.52 611.2 1335.32 609.937C1335.12 608.748 1334.74 607.618 1334.7 606.387C1334.96 607.212 1335.31 608.008 1335.75 608.753C1335.95 609.087 1337.43 608.698 1337.72 608.656C1338.58 608.531 1339.4 608.294 1340.22 607.987C1341.97 607.331 1343.61 606.384 1345.05 605.192C1344.58 606.057 1343.84 606.735 1343.11 607.396C1343.77 608.028 1344.59 608.493 1345.47 608.736C1345.66 608.786 1345.87 608.858 1345.92 609.042C1345.99 609.348 1345.53 609.733 1345.79 609.904C1345.92 609.989 1346.1 609.868 1346.16 609.722C1346.22 609.575 1346.2 609.411 1346.24 609.26C1346.32 608.985 1346.59 608.777 1346.87 608.78C1347.16 608.784 1347.43 608.997 1347.49 609.274C1347.52 609.372 1347.52 609.477 1347.57 609.565C1347.71 609.817 1348.19 609.618 1348.12 609.34C1348.09 609.257 1348.04 609.189 1348 609.11C1347.91 608.881 1348.04 608.614 1348.23 608.456C1348.42 608.297 1348.66 608.214 1348.88 608.098C1349.41 607.812 1349.83 607.304 1350 606.722C1350.7 608.12 1350.53 609.793 1350.19 611.32C1349.69 613.517 1348.83 615.678 1347.36 617.379C1346.78 618.045 1346.07 618.741 1346.09 619.622C1346.78 619.719 1348.24 620.003 1348.82 619.584C1349.45 619.132 1349.44 618.063 1350.08 617.561C1350.35 617.35 1350.71 617.22 1350.85 616.909C1350.93 616.738 1350.92 616.542 1350.92 616.353C1350.91 615.635 1351 614.919 1351.18 614.223C1350.98 615.209 1351.09 616.268 1351.36 617.196C1351.37 617.228 1351.38 617.264 1351.41 617.283C1351.44 617.302 1351.47 617.302 1351.51 617.301C1351.74 617.292 1351.98 617.283 1352.21 617.274C1352.29 617.271 1352.37 617.267 1352.44 617.227C1352.51 617.186 1352.55 617.113 1352.58 617.039C1352.7 616.724 1352.62 616.372 1352.59 616.035C1352.57 615.698 1352.63 615.303 1352.92 615.132C1352.98 615.097 1353.05 615.073 1353.1 615.027C1353.28 614.861 1353.15 614.56 1353 614.359C1352.93 614.259 1352.86 614.156 1352.83 614.035C1352.81 613.947 1352.82 613.854 1352.82 613.764C1352.91 612.881 1353.07 612.005 1353.32 611.153C1352.69 611.921 1351.73 612.68 1351.36 613.615C1351.56 613.029 1351.82 612.464 1352.14 611.936C1352.83 610.801 1354.03 609.289 1353.58 607.86C1353.5 607.607 1353.37 607.375 1353.27 607.127C1352.86 606.047 1353.28 605.127 1353.69 604.172C1353.75 604.049 1353.8 603.924 1353.85 603.799C1354.12 603.142 1354.31 602.5 1354.44 601.856C1354.45 601.995 1354.46 602.134 1354.48 602.272C1354.55 602.735 1354.7 603.199 1354.64 603.664C1354.55 604.326 1354.06 604.862 1353.85 605.496C1353.44 606.728 1354.35 608.216 1355.63 608.416C1355.3 607.895 1355.23 607.205 1355.47 606.633C1355.62 606.291 1355.86 605.991 1355.95 605.634ZM1351.22 614.078C1351.22 614.069 1351.22 614.06 1351.23 614.051C1351.22 614.06 1351.22 614.069 1351.22 614.078ZM1352.97 592.842C1352.74 592.502 1352.5 592.159 1352.21 591.875C1352.16 591.835 1352.12 591.801 1352.07 591.763C1352.9 591.776 1353.29 592.521 1353.58 593.284C1353.68 593.53 1353.76 593.778 1353.85 594.029C1353.54 593.616 1353.22 593.217 1352.97 592.842Z" fill="#716F6F"/>
<path d="M422.51 825.956C428.379 825.815 422.51 829.889 418.842 831.943C404.683 832.296 374.127 832.789 365.169 831.943C353.971 830.887 376.367 829.302 372.312 823.491C369.069 818.842 378.297 824.606 383.317 828.069C383.124 827.365 383.201 824.759 385.055 819.969C386.908 815.18 391.104 823.374 392.971 828.069C392.971 826.543 394.168 822.575 398.956 818.913C403.744 815.25 403.268 823.491 402.431 828.069C402.817 826.778 404.671 823.35 408.995 819.969C413.32 816.588 413.886 823.961 413.629 828.069C414.144 827.424 416.641 826.097 422.51 825.956Z" fill="#506728"/>
<path d="M148.809 805.133C147.952 804.6 138.956 810.568 138.099 811.847C137.242 813.126 136.385 814.618 136.385 814.618C136.385 814.618 127.496 813.659 122.997 814.085C122.462 813.979 114.001 803.894 112.073 805.1C110.145 806.306 111.859 808.864 111.537 809.716C111.422 810.022 111.266 810.382 111.112 810.719C111.111 810.78 111.105 810.844 111.083 810.912C110.368 813.186 109.345 815.571 109.202 817.968C108.993 821.479 112.032 823.414 111.868 823.691C111.705 823.967 108.152 822.56 107.895 818.676C107.733 816.225 108.775 813.777 109.555 811.441C105.579 809.965 90.3689 805.391 73.337 814.23C62.3236 819.945 62.9296 829.571 63.4438 837.498C63.9576 845.424 66.0135 848.876 65.3712 851.177C64.7288 853.478 63.8294 854.501 63.958 857.314C64.0865 860.126 64.6003 861.533 64.215 862.811C63.8298 864.09 60.8522 868.55 61.0057 871.454C61.1593 874.359 61.1593 875.735 62.4908 875.786C63.8224 875.837 63.8224 872.576 64.2834 872.779C64.7445 872.983 63.5606 875.459 64.2834 875.582C65.4231 875.776 66.7164 875.852 67.1684 868.462C67.3173 867.783 68.5301 865.295 69.2119 862.052C69.719 859.641 70.7704 857.648 71.2764 856.785C72.0453 854.535 73.3257 852.482 74.3861 850.353C75.8872 847.338 77.0261 840.249 77.3246 840.219C77.6739 840.184 77.2164 847.377 75.7832 850.417C74.6514 852.819 73.1424 855.068 72.363 857.607C73.278 859.22 74.6428 862.148 74.5924 865.219C74.5166 869.819 74.6682 874.192 75.6531 874.267C76.6381 874.343 76.9421 873.212 76.9421 873.212C76.9421 873.212 78.0783 875.571 80.7308 875.786C82.6254 875.851 81.4888 871.327 80.7308 868.839C79.9729 866.35 78.2299 862.354 78.9879 859.866C79.6826 857.585 84.5762 851.315 85.7386 847.672C83.8909 847.29 79.8158 845.554 79.9006 845.244C79.9518 845.057 81.6451 845.43 83.4264 845.839C85.2619 846.261 87.1483 846.408 89.03 846.32C91.3191 846.214 94.1916 846.34 95.0536 847.198C96.5691 848.706 99.9793 857.528 99.9039 858.584C99.8281 859.639 99.603 862.882 99.905 865.37C100.207 867.859 101.209 869.03 100.889 870.196C100.661 871.026 100.558 877.435 100.951 877.888C101.344 878.34 101.95 877.284 101.95 877.284C101.95 877.284 101.95 877.963 103.465 878.641C104.981 879.32 105.966 878.868 106.269 878.641C106.573 878.415 106.648 875.852 106.648 875.852C106.648 875.852 106.876 878.491 107.482 878.641C108.088 878.792 109.225 878.114 109.225 876.228C109.225 874.343 106.724 870.196 106.648 869.14C106.573 868.085 107.785 861.977 107.633 859.187C107.482 856.397 106.421 851.194 106.875 850.44C107.33 849.685 107.936 848.554 108.694 848.932C112.611 851.896 120.635 851.165 120.72 851.474C120.805 851.784 116.308 852.837 114.378 852.338C114.378 853.072 114.378 854.172 114.378 855.794C114.378 859.715 114.757 861.977 115.136 863.108C115.515 864.239 116.121 864.767 116.121 865.672C116.121 866.577 114.529 871.855 116.121 874.495C117.03 875.776 117.333 874.193 117.333 874.193C117.333 874.193 119.986 877.661 123.017 876.908C124.305 876.455 122.562 872.609 122.562 872.609C122.562 872.609 121.88 868.613 121.729 866.954C121.577 865.295 124.01 849.074 124.987 848.932C127.174 848.615 136.92 846.164 139.063 845.844C141.204 845.524 142.811 846.164 144.204 841.901C145.596 837.638 142.383 837.638 142.276 836.679C142.169 835.72 143.347 831.99 142.49 830.711C141.633 829.433 141.205 826.235 141.097 825.383C141.097 825.383 146.751 823.14 146.453 818.989C146.238 816.005 145.511 810.25 146.464 808.971C147.417 807.691 149.666 805.666 148.809 805.133Z" fill="#DAB8B8"/>
<path d="M202.734 429.936C206.942 428.926 211.103 427.565 215.37 427.01C219.365 426.49 222.758 428.662 225.86 431.036C226.779 431.739 227.612 432.554 228.492 433.309C229.655 434.308 230.901 434.446 232.259 433.695C233.588 432.959 234.884 432.122 236.291 431.578C238.927 430.559 241.577 429.465 244.323 428.863C248.879 427.865 253.013 429.059 256.638 432.055C258.042 433.216 259.59 434.201 261.06 435.283C261.394 435.529 261.674 435.846 261.979 436.13C261.949 436.272 261.919 436.414 261.888 436.557C261.087 436.557 260.282 436.611 259.486 436.548C256.196 436.284 253.315 434.852 250.632 433.1C248.051 431.415 245.47 431.309 242.774 432.506C240.364 433.576 238.023 434.8 235.63 435.909C230.119 438.465 228.823 438.51 223.931 433.428C222.548 431.991 221.217 430.663 219.112 430.688C217.68 430.705 216.237 430.836 214.822 431.062C211.143 431.65 207.497 431.636 203.873 430.724C203.505 430.632 203.148 430.5 202.786 430.386C202.767 430.237 202.75 430.087 202.734 429.936Z" fill="#BA8254"/>
<path d="M217.755 406.794C218.923 405.057 219.991 403.241 221.29 401.608C222.322 400.311 223.83 399.996 225.428 400.586C226.701 401.056 227.974 401.536 229.211 402.09C230.26 402.561 230.91 402.319 231.454 401.302C232.149 400.002 232.892 398.712 233.758 397.523C235.186 395.563 236.518 395.243 238.769 396.189C239.725 396.591 240.646 397.078 241.573 397.546C242.497 398.012 243.408 398.502 244.658 399.156C243.884 399.268 243.416 399.412 242.957 399.389C241.032 399.289 239.126 399.101 237.488 397.904C236.603 397.258 235.883 397.407 235.307 398.385C234.516 399.727 233.647 401.022 232.856 402.364C232.143 403.574 231.099 404.004 229.805 403.621C228.477 403.227 227.122 402.814 225.914 402.161C224.858 401.59 224.173 401.538 223.317 402.479C222.032 403.891 220.611 405.181 219.223 406.497C218.925 406.779 218.523 406.952 218.169 407.175C218.031 407.049 217.893 406.921 217.755 406.794Z" fill="#BA8254"/>
<path d="M215.725 426.073C219.195 426.095 221.996 427.404 224.556 429.277C225.908 430.266 227.145 431.413 228.425 432.499C229.964 433.805 230.668 433.915 232.42 432.916C236.044 430.849 239.723 428.945 243.883 428.16C248.819 427.229 253.226 428.271 257.134 431.465C258.388 432.49 259.755 433.374 261.057 434.341C261.473 434.65 261.877 434.986 262.231 435.362C263.037 436.216 262.9 436.892 261.764 437.014C260.355 437.165 258.8 437.365 257.511 436.936C254.992 436.098 252.48 435.06 250.21 433.697C247.621 432.142 245.167 432.112 242.578 433.328C240.372 434.364 238.22 435.517 236.018 436.561C234.865 437.108 233.67 437.579 232.466 438.004C230.516 438.693 228.628 438.452 227.025 437.156C225.541 435.956 224.087 434.677 222.831 433.248C221.606 431.854 220.166 431.232 218.402 431.307C217.088 431.363 215.779 431.562 214.472 431.732C210.746 432.217 207.055 432.093 203.409 431.128C203.139 431.057 202.846 431.009 202.617 430.866C202.365 430.708 201.967 430.405 202.002 430.247C202.065 429.96 202.354 429.603 202.632 429.501C204.055 428.979 205.488 428.468 206.949 428.068C209.412 427.395 211.896 426.796 214.379 426.197C214.878 426.078 215.411 426.1 215.725 426.073ZM202.734 429.936C202.751 430.087 202.767 430.237 202.784 430.388C203.146 430.502 203.504 430.634 203.871 430.726C207.496 431.638 211.142 431.652 214.82 431.064C216.235 430.838 217.678 430.707 219.11 430.69C221.215 430.664 222.545 431.993 223.929 433.43C228.821 438.511 230.117 438.466 235.628 435.911C238.021 434.801 240.362 433.578 242.772 432.508C245.468 431.311 248.049 431.417 250.63 433.102C253.313 434.854 256.194 436.286 259.484 436.55C260.28 436.614 261.085 436.559 261.886 436.559C261.916 436.417 261.946 436.274 261.977 436.132C261.672 435.848 261.392 435.53 261.058 435.285C259.588 434.203 258.04 433.218 256.636 432.057C253.012 429.061 248.877 427.867 244.321 428.865C241.576 429.467 238.926 430.561 236.289 431.58C234.882 432.124 233.586 432.961 232.257 433.697C230.9 434.448 229.654 434.311 228.49 433.311C227.61 432.555 226.777 431.741 225.858 431.038C222.756 428.664 219.363 426.492 215.368 427.012C211.103 427.565 206.941 428.926 202.734 429.936Z" fill="#062818"/>
<path d="M248.92 417.574C251.166 416.314 253.383 414.997 255.666 413.808C258.31 412.432 260.716 413.32 262.969 414.85C263.725 415.364 264.398 416.003 265.092 416.603C266.123 417.493 266.647 417.523 267.71 416.655C268.297 416.175 268.827 415.624 269.42 415.152C273.434 411.96 278.151 411.256 282.434 414.802C283.582 415.753 284.743 416.688 285.898 417.631C285.826 417.739 285.755 417.848 285.683 417.956C284.034 417.105 282.318 416.36 280.75 415.38C277.685 413.462 274.863 413.882 272.07 415.914C270.909 416.759 269.687 417.522 268.475 418.295C267.34 419.02 266.206 418.967 265.123 418.166C264.16 417.454 263.248 416.665 262.246 416.013C260.284 414.736 258.312 414.154 255.958 415.34C253.781 416.437 251.401 417.132 249.11 418.003C249.048 417.86 248.984 417.717 248.92 417.574Z" fill="#BA8254"/>
<path d="M247.189 418.293C247.435 418.027 247.638 417.693 247.934 417.507C249.964 416.232 252.018 414.994 254.057 413.732C257.142 411.823 260.132 412.152 263.053 414.103C263.518 414.414 263.97 414.746 264.409 415.092C266.544 416.775 266.093 417.091 268.499 414.987C270.722 413.044 273.335 412.063 276.227 411.754C278.152 411.548 279.908 412.207 281.443 413.229C283.199 414.398 284.815 415.788 286.422 417.162C286.772 417.461 286.83 418.102 287.022 418.586C286.514 418.606 285.925 418.803 285.512 418.614C283.733 417.802 281.934 416.993 280.274 415.968C277.537 414.279 275.054 414.684 272.588 416.472C271.456 417.292 270.277 418.048 269.112 418.823C267.468 419.916 265.885 419.807 264.364 418.561C263.653 417.978 262.949 417.384 262.208 416.84C260.292 415.432 258.377 414.841 255.983 416.021C253.778 417.107 251.351 417.75 249.002 418.53C248.489 418.7 247.895 418.626 247.339 418.664C247.288 418.541 247.238 418.417 247.189 418.293ZM248.92 417.574C248.984 417.717 249.048 417.86 249.112 418.003C251.403 417.131 253.783 416.436 255.96 415.34C258.314 414.155 260.285 414.736 262.248 416.013C263.25 416.665 264.162 417.454 265.125 418.166C266.208 418.967 267.342 419.019 268.477 418.295C269.689 417.522 270.911 416.759 272.072 415.914C274.865 413.881 277.687 413.462 280.752 415.38C282.32 416.361 284.036 417.105 285.685 417.956C285.757 417.848 285.828 417.739 285.9 417.631C284.745 416.689 283.584 415.753 282.436 414.802C278.152 411.257 273.436 411.961 269.422 415.152C268.829 415.624 268.299 416.175 267.712 416.655C266.649 417.523 266.125 417.494 265.094 416.603C264.399 416.003 263.727 415.364 262.971 414.85C260.718 413.32 258.311 412.432 255.668 413.808C253.382 414.997 251.166 416.314 248.92 417.574Z" fill="#062818"/>
<path d="M534.709 428.86C536.955 427.6 539.172 426.283 541.455 425.094C544.099 423.718 546.505 424.606 548.758 426.136C549.514 426.65 550.187 427.289 550.882 427.889C551.913 428.779 552.437 428.809 553.5 427.941C554.087 427.461 554.617 426.91 555.21 426.438C559.224 423.246 563.941 422.542 568.224 426.088C569.372 427.039 570.533 427.974 571.688 428.917C571.616 429.025 571.545 429.134 571.473 429.242C569.824 428.391 568.108 427.646 566.54 426.666C563.475 424.748 560.652 425.168 557.859 427.2C556.698 428.045 555.476 428.808 554.264 429.581C553.129 430.306 551.995 430.253 550.912 429.452C549.949 428.74 549.037 427.951 548.035 427.299C546.073 426.022 544.101 425.44 541.747 426.626C539.57 427.723 537.19 428.418 534.899 429.289C534.837 429.146 534.773 429.003 534.709 428.86Z" fill="#BA8254"/>
<path d="M532.978 429.578C533.224 429.312 533.427 428.978 533.723 428.792C535.753 427.517 537.807 426.279 539.846 425.017C542.931 423.108 545.921 423.437 548.842 425.388C549.307 425.699 549.759 426.031 550.198 426.377C552.333 428.06 551.882 428.376 554.288 426.272C556.511 424.329 559.124 423.348 562.016 423.039C563.941 422.833 565.697 423.492 567.232 424.514C568.988 425.683 570.604 427.073 572.211 428.448C572.561 428.747 572.619 429.388 572.811 429.872C572.303 429.892 571.714 430.089 571.301 429.9C569.522 429.088 567.723 428.279 566.063 427.254C563.326 425.565 560.843 425.97 558.377 427.758C557.245 428.578 556.066 429.334 554.901 430.109C553.257 431.202 551.674 431.093 550.153 429.847C549.442 429.264 548.738 428.67 547.997 428.126C546.081 426.718 544.166 426.127 541.772 427.307C539.567 428.394 537.139 429.036 534.791 429.816C534.278 429.986 533.684 429.912 533.128 429.95C533.077 429.827 533.027 429.703 532.978 429.578ZM534.709 428.86C534.773 429.003 534.837 429.146 534.901 429.289C537.192 428.417 539.572 427.722 541.749 426.626C544.103 425.441 546.074 426.022 548.037 427.299C549.039 427.951 549.951 428.74 550.914 429.452C551.997 430.253 553.131 430.305 554.266 429.581C555.478 428.808 556.7 428.045 557.861 427.2C560.654 425.167 563.476 424.748 566.542 426.666C568.11 427.647 569.826 428.391 571.475 429.242C571.547 429.134 571.618 429.025 571.69 428.917C570.535 427.975 569.374 427.039 568.226 426.088C563.942 422.543 559.226 423.247 555.212 426.438C554.619 426.91 554.089 427.461 553.502 427.941C552.439 428.809 551.915 428.78 550.884 427.889C550.189 427.289 549.517 426.65 548.76 426.136C546.507 424.606 544.1 423.718 541.457 425.094C539.172 426.283 536.955 427.6 534.709 428.86Z" fill="#062818"/>
<path d="M573.42 409.501C575.666 408.241 577.883 406.924 580.166 405.735C582.81 404.359 585.216 405.247 587.469 406.777C588.225 407.291 588.898 407.93 589.593 408.53C590.624 409.42 591.148 409.45 592.211 408.582C592.798 408.102 593.328 407.551 593.921 407.079C597.935 403.888 602.652 403.183 606.935 406.729C608.083 407.68 609.244 408.615 610.399 409.558C610.327 409.666 610.256 409.775 610.184 409.883C608.535 409.032 606.819 408.287 605.251 407.307C602.186 405.389 599.363 405.809 596.57 407.841C595.409 408.686 594.187 409.449 592.975 410.222C591.84 410.947 590.706 410.894 589.623 410.093C588.66 409.381 587.748 408.592 586.746 407.94C584.784 406.663 582.812 406.082 580.458 407.267C578.281 408.364 575.901 409.059 573.61 409.93C573.547 409.786 573.484 409.643 573.42 409.501Z" fill="#BA8254"/>
<path d="M571.689 410.219C571.935 409.953 572.138 409.619 572.434 409.433C574.464 408.158 576.518 406.92 578.557 405.658C581.642 403.749 584.632 404.078 587.553 406.029C588.018 406.34 588.47 406.672 588.909 407.018C591.044 408.701 590.593 409.017 592.999 406.913C595.222 404.97 597.835 403.99 600.727 403.68C602.652 403.474 604.408 404.133 605.943 405.155C607.699 406.324 609.315 407.714 610.922 409.089C611.272 409.388 611.33 410.029 611.522 410.513C611.014 410.533 610.425 410.73 610.012 410.541C608.233 409.729 606.434 408.92 604.774 407.895C602.037 406.206 599.554 406.611 597.088 408.399C595.956 409.219 594.777 409.975 593.612 410.75C591.968 411.843 590.385 411.734 588.864 410.488C588.153 409.905 587.449 409.311 586.708 408.767C584.791 407.359 582.877 406.768 580.483 407.948C578.278 409.035 575.85 409.677 573.502 410.457C572.989 410.627 572.395 410.553 571.839 410.591C571.788 410.467 571.738 410.343 571.689 410.219ZM573.42 409.501C573.484 409.644 573.548 409.787 573.612 409.93C575.903 409.058 578.283 408.363 580.46 407.267C582.814 406.082 584.785 406.663 586.748 407.94C587.75 408.592 588.662 409.381 589.625 410.093C590.708 410.894 591.842 410.946 592.977 410.222C594.189 409.449 595.411 408.686 596.572 407.841C599.365 405.809 602.187 405.389 605.253 407.307C606.821 408.288 608.537 409.032 610.186 409.883C610.258 409.775 610.329 409.666 610.401 409.558C609.246 408.616 608.085 407.68 606.937 406.729C602.653 403.184 597.937 403.888 593.923 407.079C593.33 407.551 592.8 408.102 592.213 408.582C591.15 409.45 590.626 409.421 589.595 408.53C588.9 407.93 588.228 407.29 587.471 406.777C585.218 405.247 582.811 404.359 580.168 405.735C577.882 406.923 575.666 408.24 573.42 409.501Z" fill="#062818"/>
<path d="M242.991 400.148C240.891 399.993 238.89 399.818 237.199 398.564C236.543 398.078 236.122 398.283 235.741 398.904C234.926 400.233 234.083 401.544 233.273 402.875C232.54 404.079 231.441 404.629 230.118 404.298C228.585 403.914 227.025 403.457 225.642 402.722C224.656 402.197 224.125 402.412 223.467 403.061C222.189 404.321 220.932 405.61 219.574 406.779C219.081 407.203 218.323 407.317 217.685 407.573C217.804 406.865 217.748 406.06 218.078 405.47C218.89 404.017 219.758 402.562 220.827 401.296C222.167 399.709 223.959 399.316 225.94 400.104C227.054 400.547 228.184 400.955 229.274 401.451C230.092 401.824 230.551 401.678 230.994 400.851C231.709 399.517 232.488 398.199 233.394 396.989C234.88 395.005 236.512 394.528 238.771 395.457C240.689 396.245 242.543 397.198 244.386 398.153C244.784 398.359 245.017 398.885 245.325 399.263C244.873 399.526 244.443 399.841 243.963 400.035C243.644 400.164 243.255 400.123 242.991 400.148ZM217.755 406.794C217.893 406.921 218.031 407.049 218.169 407.176C218.523 406.953 218.925 406.78 219.223 406.498C220.611 405.182 222.032 403.892 223.317 402.48C224.173 401.539 224.858 401.591 225.914 402.162C227.123 402.815 228.477 403.229 229.805 403.622C231.098 404.005 232.143 403.575 232.856 402.365C233.647 401.023 234.516 399.728 235.307 398.386C235.884 397.408 236.603 397.258 237.488 397.905C239.125 399.101 241.032 399.289 242.957 399.39C243.416 399.414 243.884 399.269 244.658 399.157C243.408 398.503 242.497 398.013 241.573 397.547C240.646 397.079 239.725 396.591 238.769 396.19C236.518 395.244 235.186 395.565 233.758 397.524C232.892 398.713 232.149 400.003 231.454 401.303C230.91 402.32 230.26 402.561 229.211 402.091C227.974 401.536 226.701 401.057 225.428 400.587C223.83 399.997 222.322 400.312 221.29 401.609C219.99 403.241 218.922 405.057 217.755 406.794Z" fill="#062818"/>
<path d="M364 871L610 699V709L364 891L2 847V829L364 871Z" fill="#A45F5F"/>
<rect x="20" y="823" width="7" height="38" fill="#9F9292"/>
<rect y="818" width="7" height="40" fill="#9F9292"/>
<rect x="56" y="831" width="7" height="40" fill="#9F9292"/>
<rect x="96" y="834" width="7" height="47" fill="#9F9292"/>
<rect x="136" y="841" width="7" height="50" fill="#9F9292"/>
<rect x="176" y="841" width="7" height="60" fill="#9F9292"/>
<rect x="216" y="847" width="7" height="64" fill="#9F9292"/>
<rect x="266" y="847" width="7" height="74" fill="#9F9292"/>
<rect x="316" y="858" width="7" height="73" fill="#9F9292"/>
<rect x="356" y="861" width="7" height="80" fill="#9F9292"/>
<rect x="396" y="831" width="7" height="80" fill="#9F9292"/>
<rect x="436" y="808" width="7" height="73" fill="#9F9292"/>
<rect x="476" y="779" width="7" height="62" fill="#9F9292"/>
<rect x="516" y="751" width="7" height="57" fill="#9F9292"/>
<rect x="546" y="735" width="7" height="44" fill="#9F9292"/>
<rect x="576" y="713" width="7" height="36" fill="#9F9292"/>
<rect x="604" y="692" width="7" height="35" fill="#9F9292"/>
<path d="M27 1024L39 954V1024L59 986.308V1024L93 954L81 1024H59H39H27Z" fill="#506728"/>
<path d="M6 1024L18 938V1024L38 977.692V1024L72 938L60 1024H38H18H6Z" fill="#506728"/>
<path d="M1019.54 975.942H1160.77C1160.77 975.942 1161.48 960.771 1145.74 961.784C1145.74 961.784 1145.51 933.552 1131.8 942.203C1118.09 950.852 1122.86 959.789 1122.86 959.789C1122.86 959.789 1122.06 923.837 1103.39 933.001C1084.71 942.166 1089.62 950.719 1089.62 950.719C1089.62 950.719 1081.13 920.449 1065.04 928.593C1048.95 936.737 1053.21 948.941 1053.21 948.941C1053.21 948.941 1038.81 929.209 1028.08 942.201C1017.36 955.193 1031.66 963.795 1031.66 963.795C1031.66 963.795 1006.83 960.859 1019.54 975.942Z" fill="#829C3E"/>
<path d="M736.577 986.011L876.439 968.162C876.439 968.162 874.829 953.049 859.4 956.04C859.4 956.04 854.863 928.112 842.605 938.41C830.346 948.708 836.437 956.956 836.437 956.956C836.437 956.956 830.164 921.451 813.066 932.889C795.968 944.326 802.138 952.175 802.138 952.175C802.138 952.175 789.118 923.272 774.421 933.372C759.723 943.471 765.805 955.019 765.805 955.019C765.805 955.019 748.543 937.295 739.896 951.519C731.252 965.742 746.728 972.45 746.728 972.45C746.728 972.45 721.686 972.681 736.577 986.011Z" fill="#829C3E"/>
<path d="M853.574 961.495L1045.46 966.749C1045.46 966.749 1047.1 946.163 1025.67 946.953C1025.67 946.953 1026.62 908.586 1007.6 919.829C988.587 931.072 994.676 943.391 994.676 943.391C994.676 943.391 995.197 894.514 969.411 906.27C943.626 918.027 949.919 929.83 949.919 929.83C949.919 929.83 939.741 888.389 917.51 898.855C895.28 909.321 900.525 926.062 900.525 926.062C900.525 926.062 881.85 898.716 866.692 915.971C851.532 933.224 870.582 945.441 870.582 945.441C870.582 945.441 836.974 940.529 853.574 961.495Z" fill="#829C3E"/>
<path d="M958.926 1017.76C1084.34 1017.76 1186 1004.69 1186 988.564C1186 972.442 1084.34 959.372 958.926 959.372C833.517 959.372 731.852 972.442 731.852 988.564C731.852 1004.69 833.517 1017.76 958.926 1017.76Z" fill="#C29650"/>
<path d="M901.625 1034C1001.93 1034 1083.25 1023.55 1083.25 1010.65C1083.25 997.755 1001.93 987.302 901.625 987.302C801.316 987.302 720 997.755 720 1010.65C720 1023.55 801.316 1034 901.625 1034Z" fill="#C29650"/>
<path d="M887.491 945.65C891.824 946.404 908.549 947.99 916.302 929.221C916.302 929.221 911.732 933.331 904.812 930.97C899.882 929.292 892.563 931.995 888.823 937.502C890.041 925.569 887.624 917.378 887.148 906.493C887.074 904.843 887.069 903.343 887.105 901.96C890.076 901.469 908.138 897.609 907.062 876.387C907.062 876.387 904.646 881.806 897.266 882.13C891.411 882.385 885.183 888.7 885.237 896.11C884.266 898.425 883.599 901.16 883.532 905.121C883.442 910.395 884.92 915.809 885.818 921.764C885.028 920.234 884.055 918.665 882.647 917.08C875.182 908.684 867.02 907.645 865.486 905.489C865.486 905.489 862.584 915.05 874.22 921.498C881.351 925.449 884.801 929.19 886.42 931.51C886.231 935.732 885.367 940.257 883.229 945.204C875.995 961.952 885.906 979.522 885.906 979.522L892.271 975.95C892.271 975.95 882.625 965.793 887.078 947.673C887.253 946.959 887.341 946.339 887.491 945.65Z" fill="#687C32"/>
<path d="M845.877 982.214C845.877 982.214 850.685 970.071 870.315 972.624C889.946 975.177 899.561 957.662 913.182 966.055C926.804 974.449 946.15 980.588 954.047 982.214H845.877Z" fill="#CC9E54"/>
<path d="M843.144 962.85C846.551 963.445 859.705 964.691 865.801 949.929C865.801 949.929 862.207 953.161 856.765 951.306C852.889 949.987 847.132 952.112 844.19 956.443C845.147 947.059 843.247 940.617 842.872 932.056C842.814 930.757 842.811 929.579 842.838 928.491C845.174 928.104 859.379 925.068 858.533 908.38C858.533 908.38 856.633 912.641 850.829 912.895C846.223 913.097 841.327 918.062 841.369 923.888C840.606 925.709 840.082 927.861 840.029 930.974C839.957 935.121 841.12 939.38 841.825 944.064C841.203 942.862 840.44 941.628 839.332 940.38C833.462 933.777 827.043 932.96 825.837 931.265C825.837 931.265 823.555 938.785 832.707 943.854C838.315 946.959 841.028 949.903 842.301 951.727C842.153 955.048 841.473 958.607 839.793 962.498C834.104 975.668 841.897 989.486 841.897 989.486L846.903 986.678C846.903 986.678 839.319 978.691 842.82 964.439C842.957 963.881 843.025 963.394 843.144 962.85Z" fill="#687C32"/>
<path d="M810.417 991.606C810.417 991.606 814.197 982.054 829.635 984.063C845.074 986.072 852.636 972.297 863.346 978.898C874.059 985.499 889.273 990.327 895.483 991.606H810.417Z" fill="#CC9E54"/>
<path d="M919.929 975.557C923.336 976.153 936.491 977.398 942.586 962.637C942.586 962.637 938.993 965.869 933.551 964.014C929.674 962.694 923.918 964.82 920.976 969.15C921.933 959.767 920.033 953.325 919.658 944.764C919.599 943.465 919.597 942.287 919.624 941.198C921.96 940.812 936.165 937.776 935.318 921.087C935.318 921.087 933.418 925.348 927.615 925.602C923.008 925.805 918.112 930.769 918.155 936.595C917.391 938.416 916.868 940.568 916.814 943.682C916.742 947.828 917.906 952.087 918.611 956.772C917.989 955.569 917.225 954.335 916.118 953.088C910.247 946.484 903.828 945.668 902.622 943.972C902.622 943.972 900.34 951.492 909.493 956.561C915.101 959.667 917.814 962.61 919.087 964.435C918.939 967.755 918.258 971.315 916.578 975.205C910.889 988.375 918.683 1002.19 918.683 1002.19L923.689 999.385C923.689 999.385 916.105 991.399 919.606 977.147C919.743 976.588 919.81 976.101 919.929 975.557Z" fill="#687C32"/>
<path d="M887.202 1004.31C887.202 1004.31 890.982 994.762 906.42 996.771C921.859 998.78 929.421 985.004 940.132 991.606C950.845 998.207 966.059 1003.03 972.269 1004.31H887.202Z" fill="#CC9E54"/>
<path d="M807.923 972.229C811.331 972.824 824.485 974.07 830.58 959.309C830.58 959.309 826.987 962.541 821.545 960.685C817.669 959.366 811.912 961.491 808.97 965.822C809.927 956.439 808.027 949.997 807.652 941.436C807.593 940.137 807.591 938.958 807.618 937.87C809.954 937.483 824.159 934.448 823.313 917.759C823.313 917.759 821.412 922.02 815.609 922.274C811.003 922.476 806.107 927.441 806.149 933.267C805.386 935.088 804.862 937.24 804.808 940.353C804.737 944.5 805.9 948.759 806.605 953.444C805.983 952.241 805.219 951.007 804.112 949.759C798.241 943.156 791.822 942.34 790.616 940.644C790.616 940.644 788.335 948.164 797.487 953.233C803.095 956.338 805.808 959.282 807.081 961.107C806.933 964.427 806.252 967.986 804.573 971.877C798.884 985.047 806.677 998.866 806.677 998.866L811.683 996.057C811.683 996.057 804.099 988.071 807.6 973.819C807.737 973.258 807.804 972.771 807.923 972.229Z" fill="#687C32"/>
<path d="M775.195 1000.98C775.195 1000.98 778.975 991.432 794.414 993.441C809.852 995.449 817.414 981.674 828.125 988.275C838.838 994.877 854.052 999.704 860.262 1000.98H775.195Z" fill="#CC9E54"/>
<path d="M762.928 1010.65C774.199 1006.63 786.151 1004.03 798.45 1003.35C804.597 1003 810.883 1003.27 817.096 1004.73C820.19 1005.49 823.234 1006.58 826.084 1008.15L829.841 1010.02C830.142 1010.17 830.43 1010.33 830.737 1010.46L831.721 1010.79L833.682 1011.44C838.982 1013.11 844.822 1013.73 850.683 1014.04C856.561 1014.43 862.546 1014.23 868.552 1014.23C874.558 1014.15 880.615 1014.05 886.706 1014.32C889.747 1014.5 892.799 1014.68 895.817 1015.2C897.329 1015.38 898.816 1015.81 900.287 1016.17C901.028 1016.32 901.738 1016.6 902.429 1016.9L904.5 1017.76C898.676 1016.2 892.669 1016.45 886.719 1016.74C880.756 1017.05 874.78 1017.67 868.747 1018.08C856.747 1018.87 844.28 1019.65 831.923 1016.11L829.653 1015.31L828.518 1014.92C828.152 1014.75 827.795 1014.55 827.434 1014.37L823.292 1012.24L821.516 1011.33C820.936 1011 820.336 1010.7 819.663 1010.51C818.342 1010.1 817.1 1009.54 815.723 1009.22C810.311 1007.68 804.417 1007.29 798.544 1007.19C786.735 1007.13 774.791 1008.59 762.928 1010.65Z" fill="#CC9E54"/>
<path d="M976.625 1008.06C984.54 1005.31 993.025 1003.93 1001.62 1003.74C1005.92 1003.62 1010.26 1003.95 1014.57 1004.7C1015.66 1004.83 1016.71 1005.13 1017.78 1005.38L1019.38 1005.77L1020.79 1006.08C1022.64 1006.56 1024.59 1006.75 1026.52 1006.95C1030.43 1007.32 1034.45 1007.06 1038.49 1006.67C1042.55 1006.34 1046.61 1005.63 1050.75 1005.06C1054.87 1004.43 1059.06 1003.86 1063.31 1003.53C1067.55 1003.26 1071.94 1003.23 1076.04 1004.31C1071.8 1004.33 1067.75 1005.01 1063.72 1005.93C1059.69 1006.79 1055.7 1007.87 1051.63 1008.83C1043.53 1010.78 1034.99 1012.47 1026.05 1011.86C1023.83 1011.6 1021.6 1011.34 1019.43 1010.73L1016.36 1009.96C1015.4 1009.72 1014.46 1009.43 1013.48 1009.25C1009.61 1008.31 1005.57 1007.9 1001.5 1007.57C993.341 1007.05 985.018 1007.3 976.625 1008.06Z" fill="#CC9E54"/>
<path d="M755.701 982.214C758.787 980.469 762.172 979.426 765.648 978.699C769.132 978.008 772.761 977.72 776.478 978.106C778.306 978.268 780.263 978.734 782.003 979.315C783.443 979.839 784.907 980.248 786.41 980.563C789.415 981.156 792.62 981.275 796.056 980.324C793.875 983.061 789.859 984.362 786.062 984.431C784.139 984.466 782.223 984.21 780.393 983.76C778.845 983.429 777.448 983.141 775.847 983.005C772.725 982.672 769.435 982.59 766.082 982.545C762.715 982.472 759.299 982.472 755.701 982.214Z" fill="#CC9E54"/>
<path d="M959.635 966.91C962.851 965.29 966.389 964.486 969.964 964.012C973.549 963.607 977.225 963.607 980.855 964.179C982.755 964.482 984.246 964.846 985.877 965.108C987.487 965.403 989.111 965.63 990.755 965.826C994.056 966.229 997.391 966.452 1001.02 966.425C998.054 968.44 994.364 969.345 990.723 969.709C988.888 969.893 987.035 969.889 985.201 969.752C983.372 969.645 981.472 969.273 979.945 969.048C973.457 968.021 966.818 967.686 959.635 966.91Z" fill="#CC9E54"/>
<path d="M1096.61 987.302C1101.69 985.164 1107.13 983.908 1112.67 983.177C1118.21 982.48 1123.94 982.371 1129.66 983.325C1131.08 983.664 1132.51 983.875 1133.91 984.35L1136.01 985.037C1136.65 985.266 1137.24 985.475 1137.86 985.718C1140.29 986.669 1142.8 987.43 1145.31 988.208C1150.38 989.66 1155.56 990.9 1161.06 991.606C1155.64 992.964 1149.86 992.776 1144.32 991.953C1141.52 991.587 1138.8 990.861 1136.1 990.112L1134.1 989.501L1132.31 989.004C1131.14 988.619 1129.85 988.459 1128.63 988.173C1123.59 987.342 1118.3 987.044 1112.95 987.009C1107.59 986.999 1102.18 987.158 1096.61 987.302Z" fill="#CC9E54"/>
<path d="M1273.54 984.224C1221.15 948.371 1175.3 999.162 1158.92 1029.04H1446.38C1468.22 969.285 1479.13 851.725 1348.14 859.519C1184.39 869.262 1339.04 1029.04 1273.54 984.224Z" fill="#96AE62"/>
<path d="M1297.05 967.498C1240.16 924.246 1161.8 876.865 1142.57 889.427C1111.68 909.603 1291.44 963.27 1297.05 967.498Z" fill="#435D29"/>
<path d="M1358.85 1027.36C1358.17 1018.47 1331.57 993.745 1297.06 967.504M1297.06 967.504C1240.17 924.25 1161.8 876.864 1142.57 889.427C1111.67 909.612 1291.6 963.32 1297.06 967.504Z" stroke="#435D29" stroke-width="6"/>
<path d="M1320.28 931.938C1284.77 861.775 1235.86 784.915 1223.85 805.293C1204.58 838.022 1316.77 925.079 1320.28 931.938Z" fill="#435D29"/>
<path d="M1358.85 1029.04C1358.42 1014.62 1341.82 974.515 1320.28 931.947M1320.28 931.947C1284.78 861.781 1235.86 784.914 1223.85 805.293C1204.57 838.037 1316.88 925.159 1320.28 931.947Z" stroke="#435D29" stroke-width="6"/>
<path d="M1388.34 933.848C1403.99 856.374 1412.47 765.308 1388.63 774.014C1350.34 787.996 1389.85 926.256 1388.34 933.848Z" fill="#435D29"/>
<path d="M1357.56 1034.54C1366.71 1022.86 1378.85 980.861 1388.34 933.859M1388.34 933.859C1403.99 856.382 1412.47 765.308 1388.63 774.014C1350.32 788.002 1389.88 926.383 1388.34 933.859Z" stroke="#435D29" stroke-width="6"/>
<path d="M1159.83 909.402C1160.75 909.861 1162.82 908.644 1163.67 908.234C1164.75 907.709 1165.9 907.272 1167 906.762C1168.26 906.182 1169.71 905.767 1170.74 904.87C1171.8 903.941 1173.28 903.505 1174.32 902.627C1174.94 902.103 1175.08 901.895 1175.96 901.622" stroke="#435D29" stroke-width="3" stroke-linecap="round"/>
<path d="M1184.37 917.812C1186.49 916.732 1188.14 915.29 1189.95 913.923C1191.12 913.036 1193.1 911.995 1193.91 910.874" stroke="#435D29" stroke-width="3" stroke-linecap="round"/>
<path d="M1203.68 924.961C1206.34 924.873 1209.55 923.728 1211.58 922.181C1212.15 921.747 1213.07 921.287 1213.45 920.756" stroke="#435D29" stroke-width="3" stroke-linecap="round"/>
<path d="M1219.13 934.213C1220.74 934.13 1221.68 933.371 1222.99 932.694C1223.42 932.473 1224.68 931.84 1224.81 931.479" stroke="#435D29" stroke-width="3" stroke-linecap="round"/>
<path d="M1244.57 942.833C1245.59 942.927 1246.18 943.244 1247.07 942.623" stroke="#435D29" stroke-width="3" stroke-linecap="round"/>
</g>
<defs>
<clipPath id="clip0_135_2">
<rect width="1440" height="1024" fill="white"/>
</clipPath>
</defs>
</svg>
